<mxfile host="app.diagrams.net" agent="Mozilla/5.0 (Windows NT 10.0; Win64; x64) AppleWebKit/537.36 (KHTML, like Gecko) Chrome/130.0.0.0 Safari/537.36" version="24.8.3">
  <diagram name="Page-1" id="jC459XtD96fpsvuMHmo2">
    <mxGraphModel dx="2240" dy="1012" grid="1" gridSize="10" guides="1" tooltips="1" connect="1" arrows="1" fold="1" page="1" pageScale="1" pageWidth="850" pageHeight="1100" math="0" shadow="0">
      <root>
        <mxCell id="0" />
        <mxCell id="1" parent="0" />
        <mxCell id="EUs_AdRE0p7hVuzufqTg-1" value="" style="edgeStyle=orthogonalEdgeStyle;rounded=0;orthogonalLoop=1;jettySize=auto;html=1;" edge="1" parent="1" source="EUs_AdRE0p7hVuzufqTg-2" target="EUs_AdRE0p7hVuzufqTg-4">
          <mxGeometry relative="1" as="geometry" />
        </mxCell>
        <mxCell id="EUs_AdRE0p7hVuzufqTg-2" value="Start" style="ellipse;whiteSpace=wrap;html=1;" vertex="1" parent="1">
          <mxGeometry x="365" y="20" width="115" height="40" as="geometry" />
        </mxCell>
        <mxCell id="EUs_AdRE0p7hVuzufqTg-3" value="" style="edgeStyle=none;curved=1;rounded=0;orthogonalLoop=1;jettySize=auto;html=1;fontSize=12;startSize=8;endSize=8;" edge="1" parent="1" source="EUs_AdRE0p7hVuzufqTg-4" target="EUs_AdRE0p7hVuzufqTg-5">
          <mxGeometry relative="1" as="geometry" />
        </mxCell>
        <mxCell id="EUs_AdRE0p7hVuzufqTg-4" value="int: n, i, num, j&lt;div&gt;num_input = []&lt;/div&gt;&lt;div&gt;stack = []&lt;/div&gt;&lt;div&gt;reverse_input = []&lt;/div&gt;" style="shape=hexagon;perimeter=hexagonPerimeter2;whiteSpace=wrap;html=1;fixedSize=1;" vertex="1" parent="1">
          <mxGeometry x="362.5" y="90" width="120" height="80" as="geometry" />
        </mxCell>
        <mxCell id="EUs_AdRE0p7hVuzufqTg-9" value="" style="edgeStyle=orthogonalEdgeStyle;rounded=0;orthogonalLoop=1;jettySize=auto;html=1;" edge="1" parent="1" source="EUs_AdRE0p7hVuzufqTg-5" target="EUs_AdRE0p7hVuzufqTg-7">
          <mxGeometry relative="1" as="geometry" />
        </mxCell>
        <mxCell id="EUs_AdRE0p7hVuzufqTg-5" value="input:&lt;div&gt;n&lt;/div&gt;" style="shape=parallelogram;perimeter=parallelogramPerimeter;whiteSpace=wrap;html=1;fixedSize=1;" vertex="1" parent="1">
          <mxGeometry x="360" y="200" width="120" height="40" as="geometry" />
        </mxCell>
        <mxCell id="EUs_AdRE0p7hVuzufqTg-12" value="" style="edgeStyle=orthogonalEdgeStyle;rounded=0;orthogonalLoop=1;jettySize=auto;html=1;" edge="1" parent="1" source="EUs_AdRE0p7hVuzufqTg-7" target="EUs_AdRE0p7hVuzufqTg-10">
          <mxGeometry relative="1" as="geometry" />
        </mxCell>
        <mxCell id="EUs_AdRE0p7hVuzufqTg-19" value="" style="edgeStyle=orthogonalEdgeStyle;rounded=0;orthogonalLoop=1;jettySize=auto;html=1;" edge="1" parent="1" source="EUs_AdRE0p7hVuzufqTg-7" target="EUs_AdRE0p7hVuzufqTg-18">
          <mxGeometry relative="1" as="geometry" />
        </mxCell>
        <mxCell id="EUs_AdRE0p7hVuzufqTg-7" value="i &amp;lt; n" style="rhombus;whiteSpace=wrap;html=1;" vertex="1" parent="1">
          <mxGeometry x="380" y="270" width="80" height="80" as="geometry" />
        </mxCell>
        <mxCell id="EUs_AdRE0p7hVuzufqTg-13" value="" style="edgeStyle=orthogonalEdgeStyle;rounded=0;orthogonalLoop=1;jettySize=auto;html=1;" edge="1" parent="1" source="EUs_AdRE0p7hVuzufqTg-10" target="EUs_AdRE0p7hVuzufqTg-11">
          <mxGeometry relative="1" as="geometry" />
        </mxCell>
        <mxCell id="EUs_AdRE0p7hVuzufqTg-10" value="Input:&lt;div&gt;num&lt;/div&gt;" style="shape=parallelogram;perimeter=parallelogramPerimeter;whiteSpace=wrap;html=1;fixedSize=1;" vertex="1" parent="1">
          <mxGeometry x="490" y="280" width="120" height="60" as="geometry" />
        </mxCell>
        <mxCell id="EUs_AdRE0p7hVuzufqTg-11" value="append num to num_input" style="rounded=0;whiteSpace=wrap;html=1;" vertex="1" parent="1">
          <mxGeometry x="490" y="370" width="120" height="60" as="geometry" />
        </mxCell>
        <mxCell id="EUs_AdRE0p7hVuzufqTg-14" value="Y" style="text;strokeColor=none;align=center;fillColor=none;html=1;verticalAlign=middle;whiteSpace=wrap;rounded=0;" vertex="1" parent="1">
          <mxGeometry x="450" y="280" width="60" height="30" as="geometry" />
        </mxCell>
        <mxCell id="EUs_AdRE0p7hVuzufqTg-17" value="" style="endArrow=classic;html=1;rounded=0;exitX=0;exitY=0.5;exitDx=0;exitDy=0;" edge="1" parent="1" source="EUs_AdRE0p7hVuzufqTg-11">
          <mxGeometry width="50" height="50" relative="1" as="geometry">
            <mxPoint x="425" y="440" as="sourcePoint" />
            <mxPoint x="425" y="350" as="targetPoint" />
            <Array as="points">
              <mxPoint x="425" y="400" />
            </Array>
          </mxGeometry>
        </mxCell>
        <mxCell id="EUs_AdRE0p7hVuzufqTg-23" value="" style="edgeStyle=orthogonalEdgeStyle;rounded=0;orthogonalLoop=1;jettySize=auto;html=1;" edge="1" parent="1" source="EUs_AdRE0p7hVuzufqTg-18" target="EUs_AdRE0p7hVuzufqTg-21">
          <mxGeometry relative="1" as="geometry" />
        </mxCell>
        <mxCell id="EUs_AdRE0p7hVuzufqTg-34" value="" style="edgeStyle=orthogonalEdgeStyle;rounded=0;orthogonalLoop=1;jettySize=auto;html=1;" edge="1" parent="1" source="EUs_AdRE0p7hVuzufqTg-18" target="EUs_AdRE0p7hVuzufqTg-31">
          <mxGeometry relative="1" as="geometry" />
        </mxCell>
        <mxCell id="EUs_AdRE0p7hVuzufqTg-18" value="is there number in num_input?" style="rhombus;whiteSpace=wrap;html=1;" vertex="1" parent="1">
          <mxGeometry x="260" y="270" width="80" height="80" as="geometry" />
        </mxCell>
        <mxCell id="EUs_AdRE0p7hVuzufqTg-20" value="N" style="text;strokeColor=none;align=center;fillColor=none;html=1;verticalAlign=middle;whiteSpace=wrap;rounded=0;" vertex="1" parent="1">
          <mxGeometry x="330" y="280" width="60" height="30" as="geometry" />
        </mxCell>
        <mxCell id="EUs_AdRE0p7hVuzufqTg-24" value="" style="edgeStyle=orthogonalEdgeStyle;rounded=0;orthogonalLoop=1;jettySize=auto;html=1;" edge="1" parent="1" source="EUs_AdRE0p7hVuzufqTg-21" target="EUs_AdRE0p7hVuzufqTg-22">
          <mxGeometry relative="1" as="geometry" />
        </mxCell>
        <mxCell id="EUs_AdRE0p7hVuzufqTg-21" value="append number to stack" style="rounded=0;whiteSpace=wrap;html=1;" vertex="1" parent="1">
          <mxGeometry x="100" y="280" width="120" height="60" as="geometry" />
        </mxCell>
        <mxCell id="EUs_AdRE0p7hVuzufqTg-22" value="output:&lt;div&gt;stack&lt;/div&gt;" style="shape=parallelogram;perimeter=parallelogramPerimeter;whiteSpace=wrap;html=1;fixedSize=1;" vertex="1" parent="1">
          <mxGeometry x="100" y="195" width="120" height="50" as="geometry" />
        </mxCell>
        <mxCell id="EUs_AdRE0p7hVuzufqTg-25" value="" style="endArrow=classic;html=1;rounded=0;" edge="1" parent="1" target="EUs_AdRE0p7hVuzufqTg-18">
          <mxGeometry width="50" height="50" relative="1" as="geometry">
            <mxPoint x="210" y="215" as="sourcePoint" />
            <mxPoint x="310" y="215" as="targetPoint" />
            <Array as="points">
              <mxPoint x="300" y="215" />
            </Array>
          </mxGeometry>
        </mxCell>
        <mxCell id="EUs_AdRE0p7hVuzufqTg-26" value="Y" style="text;strokeColor=none;align=center;fillColor=none;html=1;verticalAlign=middle;whiteSpace=wrap;rounded=0;" vertex="1" parent="1">
          <mxGeometry x="220" y="280" width="60" height="30" as="geometry" />
        </mxCell>
        <mxCell id="EUs_AdRE0p7hVuzufqTg-29" value="N" style="text;strokeColor=none;align=center;fillColor=none;html=1;verticalAlign=middle;whiteSpace=wrap;rounded=0;" vertex="1" parent="1">
          <mxGeometry x="290" y="360" width="60" height="30" as="geometry" />
        </mxCell>
        <mxCell id="EUs_AdRE0p7hVuzufqTg-35" value="" style="edgeStyle=orthogonalEdgeStyle;rounded=0;orthogonalLoop=1;jettySize=auto;html=1;" edge="1" parent="1" source="EUs_AdRE0p7hVuzufqTg-31" target="EUs_AdRE0p7hVuzufqTg-32">
          <mxGeometry relative="1" as="geometry" />
        </mxCell>
        <mxCell id="EUs_AdRE0p7hVuzufqTg-31" value="For i in range(0, len(stack)" style="rounded=0;whiteSpace=wrap;html=1;" vertex="1" parent="1">
          <mxGeometry x="240" y="400" width="120" height="60" as="geometry" />
        </mxCell>
        <mxCell id="EUs_AdRE0p7hVuzufqTg-37" value="" style="edgeStyle=orthogonalEdgeStyle;rounded=0;orthogonalLoop=1;jettySize=auto;html=1;" edge="1" parent="1" source="EUs_AdRE0p7hVuzufqTg-32" target="EUs_AdRE0p7hVuzufqTg-36">
          <mxGeometry relative="1" as="geometry" />
        </mxCell>
        <mxCell id="EUs_AdRE0p7hVuzufqTg-32" value="For j in range(i+1, len(stack)" style="rounded=0;whiteSpace=wrap;html=1;" vertex="1" parent="1">
          <mxGeometry x="240" y="480" width="120" height="60" as="geometry" />
        </mxCell>
        <mxCell id="EUs_AdRE0p7hVuzufqTg-53" value="" style="edgeStyle=orthogonalEdgeStyle;rounded=0;orthogonalLoop=1;jettySize=auto;html=1;" edge="1" parent="1" source="EUs_AdRE0p7hVuzufqTg-36" target="EUs_AdRE0p7hVuzufqTg-43">
          <mxGeometry relative="1" as="geometry" />
        </mxCell>
        <mxCell id="EUs_AdRE0p7hVuzufqTg-36" value="stack[i] &amp;lt;= stack[j]" style="rhombus;whiteSpace=wrap;html=1;" vertex="1" parent="1">
          <mxGeometry x="260" y="570" width="80" height="80" as="geometry" />
        </mxCell>
        <mxCell id="EUs_AdRE0p7hVuzufqTg-38" value="" style="endArrow=classic;html=1;rounded=0;exitX=0;exitY=0.5;exitDx=0;exitDy=0;entryX=-0.023;entryY=0.666;entryDx=0;entryDy=0;entryPerimeter=0;" edge="1" parent="1" source="EUs_AdRE0p7hVuzufqTg-36" target="EUs_AdRE0p7hVuzufqTg-31">
          <mxGeometry width="50" height="50" relative="1" as="geometry">
            <mxPoint x="160" y="620" as="sourcePoint" />
            <mxPoint x="190" y="440" as="targetPoint" />
            <Array as="points">
              <mxPoint x="190" y="610" />
              <mxPoint x="190" y="440" />
            </Array>
          </mxGeometry>
        </mxCell>
        <mxCell id="EUs_AdRE0p7hVuzufqTg-39" value="Y" style="text;strokeColor=none;align=center;fillColor=none;html=1;verticalAlign=middle;whiteSpace=wrap;rounded=0;" vertex="1" parent="1">
          <mxGeometry x="200" y="580" width="60" height="30" as="geometry" />
        </mxCell>
        <mxCell id="EUs_AdRE0p7hVuzufqTg-57" value="" style="edgeStyle=orthogonalEdgeStyle;rounded=0;orthogonalLoop=1;jettySize=auto;html=1;" edge="1" parent="1" source="EUs_AdRE0p7hVuzufqTg-43" target="EUs_AdRE0p7hVuzufqTg-45">
          <mxGeometry relative="1" as="geometry" />
        </mxCell>
        <mxCell id="EUs_AdRE0p7hVuzufqTg-63" value="" style="edgeStyle=orthogonalEdgeStyle;rounded=0;orthogonalLoop=1;jettySize=auto;html=1;" edge="1" parent="1" source="EUs_AdRE0p7hVuzufqTg-43" target="EUs_AdRE0p7hVuzufqTg-62">
          <mxGeometry relative="1" as="geometry" />
        </mxCell>
        <mxCell id="EUs_AdRE0p7hVuzufqTg-43" value="len(stack) &amp;gt; 0" style="rhombus;whiteSpace=wrap;html=1;" vertex="1" parent="1">
          <mxGeometry x="260" y="680" width="80" height="80" as="geometry" />
        </mxCell>
        <mxCell id="EUs_AdRE0p7hVuzufqTg-58" value="" style="edgeStyle=orthogonalEdgeStyle;rounded=0;orthogonalLoop=1;jettySize=auto;html=1;" edge="1" parent="1" source="EUs_AdRE0p7hVuzufqTg-45" target="EUs_AdRE0p7hVuzufqTg-47">
          <mxGeometry relative="1" as="geometry" />
        </mxCell>
        <mxCell id="EUs_AdRE0p7hVuzufqTg-45" value="Pop from stack" style="rounded=0;whiteSpace=wrap;html=1;" vertex="1" parent="1">
          <mxGeometry x="245" y="790" width="120" height="60" as="geometry" />
        </mxCell>
        <mxCell id="EUs_AdRE0p7hVuzufqTg-59" style="edgeStyle=orthogonalEdgeStyle;rounded=0;orthogonalLoop=1;jettySize=auto;html=1;entryX=1;entryY=0.5;entryDx=0;entryDy=0;" edge="1" parent="1" source="EUs_AdRE0p7hVuzufqTg-47" target="EUs_AdRE0p7hVuzufqTg-43">
          <mxGeometry relative="1" as="geometry">
            <Array as="points">
              <mxPoint x="470" y="720" />
            </Array>
          </mxGeometry>
        </mxCell>
        <mxCell id="EUs_AdRE0p7hVuzufqTg-47" value="Append to reverse_str" style="rounded=0;whiteSpace=wrap;html=1;" vertex="1" parent="1">
          <mxGeometry x="410" y="790" width="120" height="60" as="geometry" />
        </mxCell>
        <mxCell id="EUs_AdRE0p7hVuzufqTg-49" value="N" style="text;strokeColor=none;fillColor=none;html=1;align=center;verticalAlign=middle;whiteSpace=wrap;rounded=0;fontSize=16;" vertex="1" parent="1">
          <mxGeometry x="290" y="650" width="60" height="30" as="geometry" />
        </mxCell>
        <mxCell id="EUs_AdRE0p7hVuzufqTg-60" value="Y" style="text;strokeColor=none;align=center;fillColor=none;html=1;verticalAlign=middle;whiteSpace=wrap;rounded=0;" vertex="1" parent="1">
          <mxGeometry x="290" y="750" width="60" height="30" as="geometry" />
        </mxCell>
        <mxCell id="EUs_AdRE0p7hVuzufqTg-61" value="N" style="text;strokeColor=none;fillColor=none;html=1;align=center;verticalAlign=middle;whiteSpace=wrap;rounded=0;fontSize=16;" vertex="1" parent="1">
          <mxGeometry x="210" y="680" width="60" height="30" as="geometry" />
        </mxCell>
        <mxCell id="EUs_AdRE0p7hVuzufqTg-65" value="" style="edgeStyle=orthogonalEdgeStyle;rounded=0;orthogonalLoop=1;jettySize=auto;html=1;" edge="1" parent="1" source="EUs_AdRE0p7hVuzufqTg-62" target="EUs_AdRE0p7hVuzufqTg-64">
          <mxGeometry relative="1" as="geometry" />
        </mxCell>
        <mxCell id="EUs_AdRE0p7hVuzufqTg-62" value="Print reverse_input" style="rounded=0;whiteSpace=wrap;html=1;" vertex="1" parent="1">
          <mxGeometry x="80" y="690" width="120" height="60" as="geometry" />
        </mxCell>
        <mxCell id="EUs_AdRE0p7hVuzufqTg-64" value="End" style="ellipse;whiteSpace=wrap;html=1;" vertex="1" parent="1">
          <mxGeometry x="80" y="790" width="120" height="60" as="geometry" />
        </mxCell>
      </root>
    </mxGraphModel>
  </diagram>
</mxfile>
